<svg xmlns="http://www.w3.org/2000/svg" viewBox="0 0 1200 720">
  <rect width="1200" height="720" fill="#121519"/>
  <path d="M0 515c175-60 358-68 550-24s394 36 650-64v293H0z" fill="#351820"/>
  <circle cx="250" cy="155" r="100" fill="#d55a31" opacity=".8"/>
  <path d="M660 84l52 18-250 560-54-18z" fill="#f0e7ce"/>
  <path d="M530 180c160 20 250 124 250 265 0 80-28 148-77 201H438c-53-54-82-122-82-201 0-144 48-242 174-265z" fill="#6a2631"/>
  <path d="M444 155c102-95 264-34 286 70-86-24-188-21-286-70z" fill="#090a0b"/>
</svg>
